<?xml version="1.0" encoding="UTF-8"?>
<!DOCTYPE svg PUBLIC "-//W3C//DTD SVG 1.1//EN" "http://www.w3.org/Graphics/SVG/1.1/DTD/svg11.dtd">
<svg xmlns="http://www.w3.org/2000/svg" version="1.1" width="500px" height="500px" style="shape-rendering:geometricPrecision; text-rendering:geometricPrecision; image-rendering:optimizeQuality; fill-rule:evenodd; clip-rule:evenodd" xmlns:xlink="http://www.w3.org/1999/xlink">
<g><path style="opacity:1" fill="#fefefe" d="M -0.5,-0.5 C 166.167,-0.5 332.833,-0.5 499.5,-0.5C 499.5,166.167 499.5,332.833 499.5,499.5C 332.833,499.5 166.167,499.5 -0.5,499.5C -0.5,332.833 -0.5,166.167 -0.5,-0.5 Z"/></g>
<g><path style="opacity:1" fill="#5ee0e5" d="M 349.5,17.5 C 350.919,21.0148 351.586,24.6814 351.5,28.5C 353.415,28.2155 355.081,28.5489 356.5,29.5C 354.833,29.5 353.167,29.5 351.5,29.5C 350.612,36.89 346.612,41.7233 339.5,44C 331.986,45.9225 325.653,44.0892 320.5,38.5C 319.162,35.1224 317.828,31.7891 316.5,28.5C 318.294,14.9372 325.961,9.10385 339.5,11C 343.34,12.418 346.674,14.5847 349.5,17.5 Z"/></g>
<g><path style="opacity:1" fill="#095465" d="M 316.5,28.5 C 317.828,31.7891 319.162,35.1224 320.5,38.5C 301.132,50.3477 283.298,64.3477 267,80.5C 266.333,81.5 266.333,82.5 267,83.5C 277.422,94.1976 287.255,105.364 296.5,117C 318.312,118.935 339.979,121.602 361.5,125C 369.374,105.433 374.041,85.1 375.5,64C 375.666,55.4937 374.166,47.327 371,39.5C 367.914,33.5735 363.081,30.2401 356.5,29.5C 355.081,28.5489 353.415,28.2155 351.5,28.5C 351.586,24.6814 350.919,21.0148 349.5,17.5C 365.761,17.2061 376.927,24.5394 383,39.5C 387.255,55.3688 387.589,71.3688 384,87.5C 380.787,101.685 376.954,115.685 372.5,129.5C 401.597,134.135 427.097,146.135 449,165.5C 461.613,181.183 461.613,196.849 449,212.5C 436.565,223.975 422.399,232.808 406.5,239C 395.375,242.738 384.208,246.238 373,249.5C 378.713,265.684 382.879,282.35 385.5,299.5C 381.7,297.857 377.7,297.19 373.5,297.5C 371.919,282.007 367.919,267.173 361.5,253C 340.002,256.562 318.336,259.229 296.5,261C 288.833,270 281.167,279 273.5,288C 267.662,289.48 264.829,287.313 265,281.5C 270.875,275.293 276.375,268.793 281.5,262C 280.552,261.517 279.552,261.351 278.5,261.5C 263.83,261.333 249.163,261.5 234.5,262C 235.044,262.717 235.711,263.217 236.5,263.5C 260.723,295.565 290.056,321.732 324.5,342C 334.235,347.146 344.568,349.479 355.5,349C 364.847,347.153 370.847,341.653 373.5,332.5C 377.215,332.577 380.881,332.244 384.5,331.5C 379.859,352.295 366.859,361.795 345.5,360C 331.479,357.156 318.479,351.823 306.5,344C 272.959,321.46 244.292,293.793 220.5,261C 199.165,259.403 177.999,256.569 157,252.5C 155.893,252.585 154.893,252.919 154,253.5C 147.789,269.678 143.455,286.345 141,303.5C 139.084,316.856 141.084,329.523 147,341.5C 151.281,346.724 156.781,349.39 163.5,349.5C 170.73,349.087 177.73,347.587 184.5,345C 193.329,340.753 201.996,336.253 210.5,331.5C 215.259,332.93 216.592,335.93 214.5,340.5C 199.137,352.177 181.804,358.844 162.5,360.5C 146.419,358.717 136.253,350.051 132,334.5C 128.708,320.171 128.708,305.838 132,291.5C 134.904,277.216 138.737,263.216 143.5,249.5C 130.639,246.102 117.973,242.102 105.5,237.5C 107.108,234.009 108.108,230.342 108.5,226.5C 121.44,232.035 134.773,236.369 148.5,239.5C 155.006,221.986 163.006,205.153 172.5,189C 163.301,172.434 154.801,155.601 147,138.5C 125.437,143.351 105.271,151.518 86.5,163C 78.8515,168.313 73.0182,175.146 69,183.5C 67.7628,195.024 71.9295,204.024 81.5,210.5C 78.7798,212.917 76.7798,215.917 75.5,219.5C 51.184,198.422 51.5173,177.588 76.5,157C 95.6718,143.919 116.672,134.919 139.5,130C 141.223,129.477 142.556,128.477 143.5,127C 135.448,106.242 130.782,84.7424 129.5,62.5C 128.718,47.3339 133.718,34.5006 144.5,24C 152.582,18.0638 161.582,16.0638 171.5,18C 178.923,20.0229 186.256,22.3562 193.5,25C 217.667,37.757 239.334,53.9237 258.5,73.5C 275.565,55.4176 294.899,40.4176 316.5,28.5 Z"/></g>
<g><path style="opacity:1" fill="#fdfefe" d="M 158.5,28.5 C 172.798,28.7636 186.132,32.5969 198.5,40C 217.57,51.7246 234.903,65.7246 250.5,82C 240.146,93.2195 230.146,104.72 220.5,116.5C 199.177,118.359 178.01,121.359 157,125.5C 156.167,125.167 155.333,124.833 154.5,124.5C 146.755,104.688 142.088,84.1879 140.5,63C 139.895,52.1507 142.895,42.484 149.5,34C 152.564,32.1412 155.564,30.3079 158.5,28.5 Z"/></g>
<g><path style="opacity:1" fill="#fdfefe" d="M 356.5,29.5 C 363.081,30.2401 367.914,33.5735 371,39.5C 374.166,47.327 375.666,55.4937 375.5,64C 374.041,85.1 369.374,105.433 361.5,125C 339.979,121.602 318.312,118.935 296.5,117C 287.255,105.364 277.422,94.1976 267,83.5C 266.333,82.5 266.333,81.5 267,80.5C 283.298,64.3477 301.132,50.3477 320.5,38.5C 325.653,44.0892 331.986,45.9225 339.5,44C 346.612,41.7233 350.612,36.89 351.5,29.5C 353.167,29.5 354.833,29.5 356.5,29.5 Z"/></g>
<g><path style="opacity:1" fill="#fbfcfc" d="M 274.5,116.5 C 261.833,115.833 249.167,115.167 236.5,114.5C 243.083,105.744 250.249,97.4108 258,89.5C 266.205,98.0361 274.038,106.869 281.5,116C 279.19,116.497 276.857,116.663 274.5,116.5 Z"/></g>
<g><path style="opacity:1" fill="#8fb2b9" d="M 236.5,114.5 C 249.167,115.167 261.833,115.833 274.5,116.5C 261.163,116.667 247.829,116.5 234.5,116C 235.044,115.283 235.711,114.783 236.5,114.5 Z"/></g>
<g><path style="opacity:1" fill="#fbfcfc" d="M 230.5,126.5 C 250.527,126.15 270.527,126.65 290.5,128C 305.173,147.012 318.673,166.845 331,187.5C 331.667,188.5 331.667,189.5 331,190.5C 318.86,211.286 305.36,231.12 290.5,250C 268.827,251.957 247.161,251.957 225.5,250C 210.968,231.111 197.801,211.278 186,190.5C 185.743,187.983 186.41,185.65 188,183.5C 199.215,164.956 211.215,146.956 224,129.5C 226.045,128.074 228.212,127.074 230.5,126.5 Z"/></g>
<g><path style="opacity:1" fill="#fafcfc" d="M 199.5,129.5 C 203.182,129.335 206.848,129.501 210.5,130C 199.215,145.29 188.715,161.124 179,177.5C 171.148,164.129 164.648,150.129 159.5,135.5C 172.893,133.016 186.226,131.016 199.5,129.5 Z"/></g>
<g><path style="opacity:1" fill="#fafcfc" d="M 305.5,128.5 C 322.823,130.829 340.156,133.163 357.5,135.5C 351.942,149.953 345.275,163.953 337.5,177.5C 327.559,160.597 316.892,144.264 305.5,128.5 Z"/></g>
<g><path style="opacity:1" fill="#fdfefe" d="M 108.5,226.5 C 108.263,215.096 102.43,209.096 91,208.5C 87.593,208.422 84.4264,209.088 81.5,210.5C 71.9295,204.024 67.7628,195.024 69,183.5C 73.0182,175.146 78.8515,168.313 86.5,163C 105.271,151.518 125.437,143.351 147,138.5C 154.801,155.601 163.301,172.434 172.5,189C 163.006,205.153 155.006,221.986 148.5,239.5C 134.773,236.369 121.44,232.035 108.5,226.5 Z"/></g>
<g><path style="opacity:1" fill="#fdfefe" d="M 368.5,138.5 C 391.385,143.735 412.718,152.569 432.5,165C 438.86,170.02 443.693,176.187 447,183.5C 448.344,190.388 447.01,196.722 443,202.5C 431.389,214.728 417.555,223.561 401.5,229C 390.463,233.291 379.13,236.458 367.5,238.5C 361.065,221.461 353.398,204.961 344.5,189C 353.453,172.596 361.453,155.762 368.5,138.5 Z"/></g>
<g><path style="opacity:1" fill="#5de1e6" d="M 249.5,141.5 C 278.257,139.454 296.757,152.12 305,179.5C 307.721,209.587 294.554,228.42 265.5,236C 238.648,237.823 220.815,225.99 212,200.5C 208.072,170.282 220.572,150.615 249.5,141.5 Z"/></g>
<g><path style="opacity:1" fill="#fafcfc" d="M 178.5,200.5 C 188.524,216.699 199.191,232.533 210.5,248C 203.152,248.333 195.818,247.999 188.5,247C 178.863,245.283 169.196,243.783 159.5,242.5C 164.285,227.819 170.618,213.819 178.5,200.5 Z"/></g>
<g><path style="opacity:1" fill="#fbfcfc" d="M 336.5,200.5 C 344.748,213.325 351.748,226.992 357.5,241.5C 342.613,244.569 327.613,246.903 312.5,248.5C 310.5,248.167 308.5,247.833 306.5,247.5C 317.769,232.624 327.769,216.957 336.5,200.5 Z"/></g>
<g><path style="opacity:1" fill="#5ee0e5" d="M 108.5,226.5 C 108.108,230.342 107.108,234.009 105.5,237.5C 102.522,238.989 99.522,240.489 96.5,242C 80.0143,243.348 73.0143,235.848 75.5,219.5C 76.7798,215.917 78.7798,212.917 81.5,210.5C 84.4264,209.088 87.593,208.422 91,208.5C 102.43,209.096 108.263,215.096 108.5,226.5 Z"/></g>
<g><path style="opacity:1" fill="#fdfefe" d="M 373.5,297.5 C 359.879,303.44 356.712,313.107 364,326.5C 366.843,329.163 370.009,331.163 373.5,332.5C 370.847,341.653 364.847,347.153 355.5,349C 344.568,349.479 334.235,347.146 324.5,342C 290.056,321.732 260.723,295.565 236.5,263.5C 250.5,262.833 264.5,262.167 278.5,261.5C 279.552,261.351 280.552,261.517 281.5,262C 276.375,268.793 270.875,275.293 265,281.5C 264.829,287.313 267.662,289.48 273.5,288C 281.167,279 288.833,270 296.5,261C 318.336,259.229 340.002,256.562 361.5,253C 367.919,267.173 371.919,282.007 373.5,297.5 Z"/></g>
<g><path style="opacity:1" fill="#83aab2" d="M 278.5,261.5 C 264.5,262.167 250.5,262.833 236.5,263.5C 235.711,263.217 235.044,262.717 234.5,262C 249.163,261.5 263.83,261.333 278.5,261.5 Z"/></g>
<g><path style="opacity:1" fill="#5ee0e5" d="M 373.5,297.5 C 377.7,297.19 381.7,297.857 385.5,299.5C 394.816,305.838 396.982,314.171 392,324.5C 389.604,327.067 387.104,329.4 384.5,331.5C 380.881,332.244 377.215,332.577 373.5,332.5C 370.009,331.163 366.843,329.163 364,326.5C 356.712,313.107 359.879,303.44 373.5,297.5 Z"/></g>
<g><path style="opacity:1" fill="#199ba1" d="M 249.5,380.5 C 263.674,380.824 269.507,387.824 267,401.5C 262.177,409.416 255.343,411.916 246.5,409C 235.466,401.103 234.799,392.436 244.5,383C 246.315,382.243 247.981,381.41 249.5,380.5 Z"/></g>
<g><path style="opacity:1" fill="#129aa0" d="M 182.5,381.5 C 185.572,381.183 188.572,381.516 191.5,382.5C 193.385,387 195.552,391.333 198,395.5C 200.167,391.167 202.333,386.833 204.5,382.5C 207.428,381.516 210.428,381.183 213.5,381.5C 213.5,390.833 213.5,400.167 213.5,409.5C 210.5,409.5 207.5,409.5 204.5,409.5C 204.665,406.482 204.498,403.482 204,400.5C 200.49,411.894 196.49,412.227 192,401.5C 191.503,404.146 191.336,406.813 191.5,409.5C 188.5,409.5 185.5,409.5 182.5,409.5C 182.5,400.167 182.5,390.833 182.5,381.5 Z"/></g>
<g><path style="opacity:1" fill="#0c999f" d="M 216.5,381.5 C 223.167,381.5 229.833,381.5 236.5,381.5C 236.5,384.167 236.5,386.833 236.5,389.5C 232.774,389.177 229.107,389.511 225.5,390.5C 228.086,391.48 230.753,391.813 233.5,391.5C 233.5,394.167 233.5,396.833 233.5,399.5C 230.753,399.187 228.086,399.52 225.5,400.5C 229.107,401.489 232.774,401.823 236.5,401.5C 236.5,404.167 236.5,406.833 236.5,409.5C 229.833,409.5 223.167,409.5 216.5,409.5C 216.5,400.167 216.5,390.833 216.5,381.5 Z"/></g>
<g><path style="opacity:1" fill="#0f9a9f" d="M 270.5,381.5 C 275.844,381.334 281.177,381.501 286.5,382C 295.062,385.289 298.229,391.455 296,400.5C 294.283,405.551 290.783,408.385 285.5,409C 280.511,409.499 275.511,409.666 270.5,409.5C 270.5,400.167 270.5,390.833 270.5,381.5 Z"/></g>
<g><path style="opacity:1" fill="#0a999f" d="M 308.5,389.5 C 307.596,390.209 307.263,391.209 307.5,392.5C 310.167,392.5 312.833,392.5 315.5,392.5C 315.5,394.5 315.5,396.5 315.5,398.5C 312.833,398.5 310.167,398.5 307.5,398.5C 307.263,399.791 307.596,400.791 308.5,401.5C 312.167,401.5 315.833,401.5 319.5,401.5C 319.5,404.167 319.5,406.833 319.5,409.5C 312.5,409.5 305.5,409.5 298.5,409.5C 298.5,400.167 298.5,390.833 298.5,381.5C 305.5,381.5 312.5,381.5 319.5,381.5C 319.5,384.167 319.5,386.833 319.5,389.5C 315.833,389.5 312.167,389.5 308.5,389.5 Z"/></g>
<g><path style="opacity:1" fill="#1c9ca2" d="M 321.5,381.5 C 324.187,381.336 326.854,381.503 329.5,382C 332.123,385.412 334.623,388.912 337,392.5C 337.499,388.848 337.665,385.182 337.5,381.5C 340.833,381.5 344.167,381.5 347.5,381.5C 347.5,390.833 347.5,400.167 347.5,409.5C 344.482,409.665 341.482,409.498 338.5,409C 335.627,405.423 333.127,401.589 331,397.5C 330.501,401.486 330.334,405.486 330.5,409.5C 327.5,409.5 324.5,409.5 321.5,409.5C 321.5,400.167 321.5,390.833 321.5,381.5 Z"/></g>
<g><path style="opacity:1" fill="#f8fcfc" d="M 249.5,390.5 C 257.933,389.417 260.266,392.584 256.5,400C 248.189,401.208 245.856,398.041 249.5,390.5 Z"/></g>
<g><path style="opacity:1" fill="#eff8f9" d="M 279.5,390.5 C 286.628,390.706 288.294,393.873 284.5,400C 282.866,400.494 281.199,400.66 279.5,400.5C 279.5,397.167 279.5,393.833 279.5,390.5 Z"/></g>
<g><path style="opacity:1" fill="#8ccfd2" d="M 308.5,389.5 C 310.635,391.369 313.302,392.036 316.5,391.5C 316.5,394.167 316.5,396.833 316.5,399.5C 313.302,398.964 310.635,399.631 308.5,401.5C 307.596,400.791 307.263,399.791 307.5,398.5C 310.167,398.5 312.833,398.5 315.5,398.5C 315.5,396.5 315.5,394.5 315.5,392.5C 312.833,392.5 310.167,392.5 307.5,392.5C 307.263,391.209 307.596,390.209 308.5,389.5 Z"/></g>
<g><path style="opacity:1" fill="#69929d" d="M 274.5,426.5 C 274.639,424.663 275.306,424.33 276.5,425.5C 276.043,426.298 275.376,426.631 274.5,426.5 Z"/></g>
<g><path style="opacity:1" fill="#578b97" d="M 246.5,427.5 C 245.223,428.694 244.556,430.36 244.5,432.5C 244.556,434.64 245.223,436.306 246.5,437.5C 244.735,438.461 242.735,438.795 240.5,438.5C 240.5,434.5 240.5,430.5 240.5,426.5C 242.735,426.205 244.735,426.539 246.5,427.5 Z"/></g>
<g><path style="opacity:1" fill="#005162" d="M 241.5,427.5 C 242.777,428.694 243.444,430.36 243.5,432.5C 243.167,434.167 242.833,435.833 242.5,437.5C 241.513,434.232 241.18,430.898 241.5,427.5 Z"/></g>
<g><path style="opacity:1" fill="#005162" d="M 246.5,427.5 C 246.5,430.833 246.5,434.167 246.5,437.5C 245.223,436.306 244.556,434.64 244.5,432.5C 244.556,430.36 245.223,428.694 246.5,427.5 Z"/></g>
<g><path style="opacity:1" fill="#779fa8" d="M 274.5,426.5 C 274.167,427.167 273.833,427.833 273.5,428.5C 272.5,428.5 271.5,428.5 270.5,428.5C 269.226,427.811 269.226,426.977 270.5,426C 271.928,425.421 273.262,425.588 274.5,426.5 Z"/></g>
<g><path style="opacity:1" fill="#195c6c" d="M 196.5,428.5 C 198.256,429.552 198.923,431.219 198.5,433.5C 199.5,433.5 200.5,433.5 201.5,433.5C 201.5,431.833 201.5,430.167 201.5,428.5C 202.5,428.5 203.5,428.5 204.5,428.5C 205.526,434.981 203.026,437.314 197,435.5C 196.503,433.19 196.337,430.857 196.5,428.5 Z"/></g>
<g><path style="opacity:1" fill="#165b6b" d="M 205.5,428.5 C 207.124,428.36 208.29,429.027 209,430.5C 209.965,428.74 211.132,428.406 212.5,429.5C 211.054,431.618 210.387,433.951 210.5,436.5C 209.5,436.5 208.5,436.5 207.5,436.5C 207.416,433.673 206.75,431.006 205.5,428.5 Z"/></g>
<g><path style="opacity:1" fill="#075565" d="M 217.5,428.5 C 219.924,428.192 222.257,428.526 224.5,429.5C 222.827,431.523 222.16,433.856 222.5,436.5C 221.5,436.5 220.5,436.5 219.5,436.5C 219.635,433.583 218.968,430.916 217.5,428.5 Z"/></g>
<g><path style="opacity:1" fill="#005162" d="M 225.5,428.5 C 227.369,430.635 228.036,433.302 227.5,436.5C 225.631,434.365 224.964,431.698 225.5,428.5 Z"/></g>
<g><path style="opacity:1" fill="#79a2ab" d="M 231.5,428.5 C 229.631,430.635 228.964,433.302 229.5,436.5C 228.833,436.5 228.167,436.5 227.5,436.5C 228.036,433.302 227.369,430.635 225.5,428.5C 225.5,427.5 225.5,426.5 225.5,425.5C 227.784,426.029 229.784,427.029 231.5,428.5 Z"/></g>
<g><path style="opacity:1" fill="#1d5d6d" d="M 229.5,436.5 C 228.964,433.302 229.631,430.635 231.5,428.5C 232.967,431.258 233.633,430.925 233.5,427.5C 234.5,427.5 235.5,427.5 236.5,427.5C 236.5,430.5 236.5,433.5 236.5,436.5C 234.408,436.439 232.908,435.439 232,433.5C 231.764,435.119 230.931,436.119 229.5,436.5 Z"/></g>
<g><path style="opacity:1" fill="#1d5f6e" d="M 258.5,428.5 C 258.672,429.492 258.338,430.158 257.5,430.5C 255.654,430.222 254.32,430.889 253.5,432.5C 255.045,433.452 256.712,433.785 258.5,433.5C 258.443,434.609 258.11,435.609 257.5,436.5C 250.996,436.862 249.329,434.362 252.5,429C 254.473,428.505 256.473,428.338 258.5,428.5 Z"/></g>
<g><path style="opacity:1" fill="#77a2ab" d="M 261.5,428.5 C 259.631,430.635 258.964,433.302 259.5,436.5C 258.833,436.5 258.167,436.5 257.5,436.5C 258.11,435.609 258.443,434.609 258.5,433.5C 258.443,432.391 258.11,431.391 257.5,430.5C 258.338,430.158 258.672,429.492 258.5,428.5C 259.5,427.167 260.5,427.167 261.5,428.5 Z"/></g>
<g><path style="opacity:1" fill="#135768" d="M 261.5,428.5 C 261.369,429.376 261.702,430.043 262.5,430.5C 263.524,429.147 264.857,428.48 266.5,428.5C 266.5,431.167 266.5,433.833 266.5,436.5C 264.952,436.179 264.285,435.179 264.5,433.5C 263.5,433.5 262.5,433.5 261.5,433.5C 261.715,435.179 261.048,436.179 259.5,436.5C 258.964,433.302 259.631,430.635 261.5,428.5 Z"/></g>
<g><path style="opacity:1" fill="#95b6bd" d="M 266.5,428.5 C 267.167,430.5 267.833,432.5 268.5,434.5C 268.5,435.167 268.5,435.833 268.5,436.5C 267.833,436.5 267.167,436.5 266.5,436.5C 266.5,433.833 266.5,431.167 266.5,428.5 Z"/></g>
<g><path style="opacity:1" fill="#226271" d="M 270.5,428.5 C 271.5,428.5 272.5,428.5 273.5,428.5C 275.02,430.89 276.02,433.557 276.5,436.5C 273.803,435.37 271.137,435.37 268.5,436.5C 268.5,435.833 268.5,435.167 268.5,434.5C 269.167,432.5 269.833,430.5 270.5,428.5 Z"/></g>
<g><path style="opacity:1" fill="#115969" d="M 277.5,428.5 C 279.924,428.192 282.257,428.526 284.5,429.5C 282.827,431.523 282.16,433.856 282.5,436.5C 281.5,436.5 280.5,436.5 279.5,436.5C 279.635,433.583 278.968,430.916 277.5,428.5 Z"/></g>
<g><path style="opacity:1" fill="#0f5868" d="M 294.5,434.5 C 293.082,436.308 291.082,436.975 288.5,436.5C 288.5,433.833 288.5,431.167 288.5,428.5C 289.5,428.5 290.5,428.5 291.5,428.5C 291.5,430.5 291.5,432.5 291.5,434.5C 292.5,434.5 293.5,434.5 294.5,434.5 Z"/></g>
<g><path style="opacity:1" fill="#155b6b" d="M 294.5,434.5 C 294.5,432.5 294.5,430.5 294.5,428.5C 295.5,428.5 296.5,428.5 297.5,428.5C 297.077,430.781 297.744,432.448 299.5,433.5C 299.972,431.469 300.972,429.802 302.5,428.5C 303.575,427.438 304.575,427.438 305.5,428.5C 303.407,430.556 302.074,433.056 301.5,436C 298.829,436.833 296.496,436.333 294.5,434.5 Z"/></g>
<g><path style="opacity:1" fill="#6a98a3" d="M 302.5,428.5 C 300.972,429.802 299.972,431.469 299.5,433.5C 299.5,431.5 299.5,429.5 299.5,427.5C 300.791,427.263 301.791,427.596 302.5,428.5 Z"/></g>
<g><path style="opacity:1" fill="#185c6c" d="M 316.5,427.5 C 316.443,428.609 316.11,429.609 315.5,430.5C 315.277,436.262 312.444,437.929 307,435.5C 306.333,433.5 306.333,431.5 307,429.5C 310.117,428.696 313.284,428.03 316.5,427.5 Z"/></g>
<g><path style="opacity:1" fill="#085465" d="M 319.5,428.5 C 320.315,429.429 321.148,430.429 322,431.5C 322.236,429.881 323.069,428.881 324.5,428.5C 324.5,431.167 324.5,433.833 324.5,436.5C 322.629,436.141 321.129,435.141 320,433.5C 319.764,435.119 318.931,436.119 317.5,436.5C 316.964,433.302 317.631,430.635 319.5,428.5 Z"/></g>
<g><path style="opacity:1" fill="#9bbac1" d="M 324.5,428.5 C 325.167,428.833 325.833,429.167 326.5,429.5C 325.167,431.5 325.167,433.5 326.5,435.5C 325.833,435.833 325.167,436.167 324.5,436.5C 324.5,433.833 324.5,431.167 324.5,428.5 Z"/></g>
<g><path style="opacity:1" fill="#256373" d="M 326.5,435.5 C 325.167,433.5 325.167,431.5 326.5,429.5C 328.607,428.532 330.941,428.198 333.5,428.5C 333.5,431.167 333.5,433.833 333.5,436.5C 331.05,436.702 328.717,436.369 326.5,435.5 Z"/></g>
<g><path style="opacity:1" fill="#a0bec4" d="M 316.5,427.5 C 317.791,427.263 318.791,427.596 319.5,428.5C 317.631,430.635 316.964,433.302 317.5,436.5C 316.833,434.5 316.167,432.5 315.5,430.5C 316.11,429.609 316.443,428.609 316.5,427.5 Z"/></g>
<g><path style="opacity:1" fill="#eff4f5" d="M 257.5,430.5 C 258.11,431.391 258.443,432.391 258.5,433.5C 256.712,433.785 255.045,433.452 253.5,432.5C 254.32,430.889 255.654,430.222 257.5,430.5 Z"/></g>
<g><path style="opacity:1" fill="#cbdbde" d="M 309.5,430.5 C 310.995,430.415 311.995,431.081 312.5,432.5C 311.167,433.833 309.833,433.833 308.5,432.5C 308.863,431.817 309.196,431.15 309.5,430.5 Z"/></g>
<g><path style="opacity:1" fill="#ebf1f3" d="M 328.5,430.5 C 329.552,430.351 330.552,430.517 331.5,431C 330.333,431.5 329.5,432.333 329,433.5C 328.517,432.552 328.351,431.552 328.5,430.5 Z"/></g>
<g><path style="opacity:1" fill="#64909b" d="M 309.5,437.5 C 311.337,437.639 311.67,438.306 310.5,439.5C 309.702,439.043 309.369,438.376 309.5,437.5 Z"/></g>
</svg>
